<?xml version="1.0" encoding="UTF-8"?><svg xmlns="http://www.w3.org/2000/svg" viewBox="0 0 1000 1000"><defs><style>.cls-1{fill:#291b3b;}.cls-2{fill:#d5eef6;}</style></defs><g id="Layer_3"><rect class="cls-1" x="0" y="0" width="1000" height="1000"/></g><g id="Layer_4"><path class="cls-2" d="m258.7,360.05c-9.41.26-18.58,1.45-27.44,3.48v71.87c0,.34.35.56.66.41,11.62-5.57,24.98-8.09,39.05-6.49,32.52,3.69,58.44,29.43,62.32,61.93,5.23,43.88-29.52,81.05-72.62,79.87-38.61-1.06-69.15-33.15-69.15-71.78v-119.13c0-.36-.39-.58-.7-.4-48.19,28.87-77.58,85.92-65.4,148.38,10.62,54.43,52.96,97.43,107.27,108.69,90.65,18.8,170.38-50.12,169.98-137.55-.36-78.23-65.76-141.46-143.96-139.29Zm-18.76,175.16v-69.96c0-2.12,2.3-3.45,4.13-2.39l60.59,34.98c1.84,1.06,1.84,3.71,0,4.77l-60.59,34.98c-1.84,1.06-4.13-.27-4.13-2.39Z"/><path class="cls-2" d="m440.08,463.57v-56.08h18.37v33.06c3.8-5.39,9.92-8.2,17.14-8.2,13.71,0,29.39,10.04,29.39,31.1,0,19.47-13.47,32.57-32.69,32.57s-32.2-12.12-32.2-32.45Zm46.28.61c0-8.69-5.63-14.69-13.96-14.69s-13.96,6-13.96,14.69,5.63,14.69,13.96,14.69,13.96-6,13.96-14.69Z"/><path class="cls-2" d="m512.08,464.91c0-19.47,13.47-32.57,32.69-32.57s32.2,12.61,32.2,32.45v29.63h-16.9v-10.04c-3.18,7.47-10.04,11.63-18.73,11.63-13.47,0-29.26-10.04-29.26-31.1Zm46.53-.73c0-8.69-5.63-14.69-13.96-14.69s-13.96,6-13.96,14.69,5.63,14.69,13.96,14.69,13.96-6,13.96-14.69Z"/><path class="cls-2" d="m583.47,416.67c0-6.73,5.02-11.75,11.75-11.75s11.75,5.02,11.75,11.75-5.02,11.75-11.75,11.75-11.75-5.02-11.75-11.75Zm2.57,17.26h18.37v60.49h-18.37v-60.49Z"/><path class="cls-2" d="m613.47,464.18c0-18.37,13.47-31.83,32.57-31.83s32.2,13.47,32.2,31.83v5.14h-45.67c1.47,7.1,6.86,10.29,13.47,10.29,5.27,0,9.18-1.1,11.51-4.41h18.98c-3.92,12.49-15.43,20.82-30.49,20.82-19.1,0-32.57-13.47-32.57-31.84Zm45.92-6.49c-2.08-6.24-6.98-8.94-13.35-8.94s-11.26,2.82-13.1,8.94h26.45Z"/><path class="cls-2" d="m687.79,470.55v-58.04h18.37v21.43h28.65v16.53h-28.65v20.08c0,6.37,2.94,8.33,6.98,8.33s6.98-1.96,6.98-8.33v-1.84h18.37v1.84c0,17.26-10.29,25.47-25.35,25.47s-25.35-8.2-25.35-25.47Z"/><path class="cls-2" d="m744.85,464.18c0-18.37,13.47-31.83,32.57-31.83s32.57,13.47,32.57,31.83-13.47,31.84-32.57,31.84-32.57-13.47-32.57-31.84Zm46.53,0c0-8.69-5.63-14.69-13.96-14.69s-13.96,6-13.96,14.69,5.63,14.69,13.96,14.69,13.96-6,13.96-14.69Z"/><path class="cls-2" d="m812.2,464.18c0-18.37,13.47-31.83,32.57-31.83s32.57,13.47,32.57,31.83-13.47,31.84-32.57,31.84-32.57-13.47-32.57-31.84Zm46.53,0c0-8.69-5.63-14.69-13.96-14.69s-13.96,6-13.96,14.69,5.63,14.69,13.96,14.69,13.96-6,13.96-14.69Z"/><path class="cls-2" d="m438.85,529.74h29.49c14.21,0,20.38,8.03,20.38,18.81s-5.68,18.22-18.52,18.91l20.87,26.35h-3.53l-20.77-26.35h-25.18v26.35h-2.74v-64.07Zm29.49,35.27c12.83,0,17.63-7.15,17.63-16.46s-4.9-16.36-17.63-16.36h-26.74v32.82h26.74Z"/><path class="cls-2" d="m500.85,529.74h46.83v2.45h-44.08v27.82h38.4v2.45h-38.4v28.9h44.08v2.45h-46.83v-64.07Z"/><path class="cls-2" d="m551.6,561.78c0-19.2,14.11-33.31,34.09-33.31,15.48,0,27.53,8.52,32.13,21.36h-2.94c-4.41-11.36-15.28-18.91-29.19-18.91-18.42,0-31.35,13.13-31.35,30.86s12.93,30.86,31.35,30.86c13.91,0,24.78-7.54,29.19-18.91h2.94c-4.6,12.83-16.65,21.36-32.13,21.36-19.99,0-34.09-14.11-34.09-33.31Z"/><path class="cls-2" d="m625.16,561.78c0-19.2,14.11-33.31,34.09-33.31s34.09,14.11,34.09,33.31-14.11,33.31-34.09,33.31-34.09-14.11-34.09-33.31Zm65.44,0c0-17.73-12.93-30.86-31.35-30.86s-31.35,13.13-31.35,30.86,12.93,30.86,31.35,30.86,31.35-13.13,31.35-30.86Z"/><path class="cls-2" d="m703.23,529.74h29.49c14.21,0,20.38,8.03,20.38,18.81s-5.68,18.22-18.52,18.91l20.87,26.35h-3.53l-20.77-26.35h-25.18v26.35h-2.74v-64.07Zm29.49,35.27c12.83,0,17.63-7.15,17.63-16.46s-4.9-16.36-17.63-16.36h-26.74v32.82h26.74Z"/><path class="cls-2" d="m763.28,529.74h23.02c22.04,0,33.9,12.83,33.9,32.04s-11.85,32.04-33.9,32.04h-23.02v-64.07Zm23.02,61.62c20.67,0,31.15-11.85,31.15-29.58s-10.48-29.59-31.15-29.59h-20.28v59.17h20.28Z"/><path class="cls-2" d="m826.95,576.27h2.74c.29,10.38,8.23,16.36,20.28,16.36s20.28-6.17,20.28-16.36c0-10.78-9.8-12.05-19.89-13.52-10.68-1.57-21.75-3.14-21.75-15.97,0-10.97,8.52-18.32,21.45-18.32s21.16,7.05,21.45,17.73h-2.74c-.29-9.8-7.74-15.28-18.71-15.28s-18.71,5.68-18.71,15.87c0,10.78,9.8,12.05,19.89,13.52,10.68,1.57,21.75,3.13,21.75,15.97,0,11.56-9.11,18.81-23.02,18.81s-22.73-7.05-23.02-18.81Z"/></g></svg>