<?xml version="1.0" encoding="UTF-8"?><svg id="Layer_3" xmlns="http://www.w3.org/2000/svg" viewBox="0 0 1000 1000"><defs><style>.cls-1{fill:#291b3b;}</style></defs><path class="cls-1" d="m491.37,195.12c-20.5.57-40.48,3.16-59.77,7.58v156.58c0,.74.77,1.21,1.43.89,25.31-12.14,54.43-17.62,85.07-14.15,70.84,8.03,127.32,64.12,135.76,134.92,11.4,95.59-64.32,176.57-158.21,174-84.12-2.31-150.65-72.23-150.65-156.38V239.03c0-.78-.85-1.26-1.52-.86-105,62.9-169.02,187.19-142.48,323.26,23.13,118.58,115.39,212.26,233.69,236.79,197.49,40.95,371.18-109.19,370.31-299.65-.78-170.43-143.26-308.17-313.62-303.45Zm-40.87,381.59v-152.42c0-4.62,5-7.51,9-5.2l132,76.21c4,2.31,4,8.08,0,10.39l-132,76.21c-4,2.31-9-.58-9-5.2Z"/></svg>